<svg xmlns="http://www.w3.org/2000/svg" xmlns:xlink="http://www.w3.org/1999/xlink" viewBox="0 0 800 800"><defs><style>.cls-1{fill:url(#linear-gradient);}.cls-2{opacity:0.8;}.cls-3{fill:red;}.cls-4{fill:blue;}.cls-5{fill:lime;}</style><linearGradient id="linear-gradient" x1="905.48" y1="-45.33" x2="-129.16" y2="866.19" gradientUnits="userSpaceOnUse"><stop offset="0" stop-color="#fff"/><stop offset="0.04" stop-color="#e2def4"/><stop offset="0.1" stop-color="#b8b0e5"/><stop offset="0.17" stop-color="#9286d7"/><stop offset="0.24" stop-color="#7262cb"/><stop offset="0.31" stop-color="#5743c0"/><stop offset="0.4" stop-color="#402bb8"/><stop offset="0.49" stop-color="#2f18b2"/><stop offset="0.6" stop-color="#230aad"/><stop offset="0.74" stop-color="#1c02ab"/><stop offset="1" stop-color="#1a00aa"/></linearGradient></defs><title>LOGO</title><g id="Layer_12_copy" data-name="Layer 12 copy"><circle class="cls-1" cx="400" cy="400" r="400"/></g><g id="Layer_5" data-name="Layer 5"><g class="cls-2"><path class="cls-3" d="M238.55,493.4a13,13,0,0,1-13-13.12l3.54-374.15a13,13,0,0,1,19.6-11.08L571,285.19a13,13,0,0,1-.22,22.51L245,491.72A13,13,0,0,1,238.55,493.4Z" transform="translate(-2 -1)"/><path d="M242.09,106.25l161.12,95.07,161.13,95.06-162.89,92-162.9,92,1.77-187.07,1.77-187.08m0-26a26,26,0,0,0-26,25.76l-1.77,187.07-1.77,187.07A26,26,0,0,0,251.34,503l162.89-92,162.9-92a26,26,0,0,0,.42-45L416.43,178.92,255.3,83.86a25.93,25.93,0,0,0-13.21-3.61Z" transform="translate(-2 -1)"/></g><g class="cls-2"><path class="cls-4" d="M236.31,671.77a13,13,0,0,1-13-13.13l3.53-374.14a13,13,0,0,1,19.61-11.08L568.7,463.56a13,13,0,0,1-.21,22.51l-325.79,184A13,13,0,0,1,236.31,671.77Z" transform="translate(-2 -1)"/><path d="M239.84,284.62,401,379.69,562.1,474.75l-162.9,92-162.89,92,1.77-187.08,1.76-187.07m0-26a26,26,0,0,0-26,25.75l-1.76,187.08-1.77,187.07a26,26,0,0,0,38.79,22.89L412,589.4l162.89-92a26,26,0,0,0,.43-45L414.18,357.29,253.05,262.23a25.91,25.91,0,0,0-13.21-3.61Z" transform="translate(-2 -1)"/></g><g class="cls-2"><path class="cls-5" d="M396.39,586.06a13,13,0,0,1-13-13.12l3.53-374.15a13,13,0,0,1,19.61-11.07L728.78,377.85a13,13,0,0,1-.21,22.52l-325.79,184A13,13,0,0,1,396.39,586.06Z" transform="translate(-2 -1)"/><path d="M399.92,198.91,561.05,294l161.13,95.07-162.9,92-162.89,92L398.15,386l1.77-187.08m0-26a26,26,0,0,0-26,25.76l-1.77,187.07-1.76,187.08a26,26,0,0,0,38.78,22.88l162.9-92,162.89-92a26,26,0,0,0,.43-45L574.26,271.59,413.13,176.52a26,26,0,0,0-13.21-3.61Z" transform="translate(-2 -1)"/></g></g></svg>