<svg id="Layer_1" data-name="Layer 1" xmlns="http://www.w3.org/2000/svg" viewBox="0 0 800 800"><defs><style>.cls-1{fill:#1f003f;stroke:#ce91ff;stroke-miterlimit:10;stroke-width:30px;}.cls-2{fill:#cc8dff;}</style></defs><title>Ae</title><rect class="cls-1" x="15" y="15" width="770" height="770"/><path class="cls-2" d="M197.32,427.8l-37.8,115h-49L235,176.91h56.82l125,365.88H366.21L327,427.8Zm120.15-36.94-36.22-105.3c-7.94-23.95-13.44-45.74-18.85-66.75h-1.28c-5.24,21.39-11,43.74-18.14,66.12l-36,105.93Z"/><path class="cls-2" d="M489,420.15c.94,64.53,41.89,91.14,89.84,91.14,34.16,0,55.06-6.13,72.71-13.44l8.37,33.91c-16.7,7.63-45.88,16.73-87.59,16.73-80.67,0-129.18-53.74-129.18-132.5,0-79.56,46.87-141.7,123.53-141.7,85.65,0,108,75.15,108,123.48,0,10-.57,17.19-1.63,22.38ZM628.72,385.8c.48-30.08-12.31-77.29-65.85-77.29-48.74,0-69.49,44.06-73.3,77.29Z"/></svg>