<svg id="Layer_1" data-name="Layer 1" xmlns="http://www.w3.org/2000/svg" viewBox="0 0 800 800"><defs><style>.cls-1{fill:#261300;stroke:#f97600;stroke-miterlimit:10;stroke-width:30px;}.cls-2{fill:#f97600;}</style></defs><title>Ai</title><rect class="cls-1" x="15" y="15" width="770" height="770"/><path class="cls-2" d="M228.39,470.08,184.07,604.87H126.64L272.5,176h66.62L485.59,604.87H426.35L380.42,470.08Zm140.84-43.3L326.77,303.35c-9.31-28.07-15.75-53.62-22.1-78.24h-1.5c-6.14,25.07-12.83,51.26-21.26,77.49L239.65,426.78Z"/><path class="cls-2" d="M607.21,210.14c0,19-13.36,34.78-35.6,34.78-20.25,0-33.83-15.74-33.78-34.78-.05-19.21,14.29-34.83,34.8-34.83C593.52,175.31,607.07,190.59,607.21,210.14ZM544.68,604.87V297.14h55.68V604.87Z"/></svg>