<svg id="Layer_1" data-name="Layer 1" xmlns="http://www.w3.org/2000/svg" viewBox="0 0 800 800"><defs><style>.cls-1{fill:#001d26;stroke:#0ec8ff;stroke-miterlimit:10;stroke-width:30px;}.cls-2{fill:#0ec8ff;}</style></defs><title>Ps</title><rect class="cls-1" x="15" y="15" width="770" height="770"/><path class="cls-2" d="M176.3,223.05c24.83-4.42,57.35-8,99-8,50.52,0,87.88,11.69,111.68,33.12,21.62,19.06,35,47.94,35,83.41,0,36.11-10.76,64.61-31,85.26-27.46,29.13-71.48,43.64-121.76,43.64-15.62,0-29.74-.58-41.61-3.71V616.64H176.3Zm51.42,191.89c11.44,3.31,25.77,4.47,42.67,4.47,62.4,0,100.09-30.62,100.09-85.06,0-52.75-37.64-78.53-94.09-78.53-22.69,0-39.59,2.11-48.67,4.06Z"/><path class="cls-2" d="M468.93,563.71c15.67,9.78,43,20.37,68.91,20.37,38,0,55.56-18.67,55.56-42.58,0-25-15.12-38.1-53.13-52.35-51.65-18.69-76.11-46.81-76-81.07,0-46.05,37.42-83.83,98.9-83.83,29.09,0,54.14,7.88,70,17.59l-12.93,37.8a112.32,112.32,0,0,0-58.64-16.83c-30.69,0-47.36,17.69-47.36,39.24,0,23.66,16.81,34.22,54.28,48.76,49.28,18.35,74.88,43.2,75,85.9,0,50.66-39.38,86.14-106.93,86.14-31.29,0-60.22-8.1-80.34-19.92Z"/></svg>