<svg id="Layer_1" data-name="Layer 1" xmlns="http://www.w3.org/2000/svg" viewBox="0 0 800 800"><defs><style>.cls-1{fill:#dc143c;}.cls-2{fill:#14164e;}</style></defs><title>UP</title><path class="cls-1" d="M402.74,799.5a404,404,0,0,1-64.92-5.25c-3.53-.58-7-1.19-10.23-1.81C139.65,756.67,3.24,591.63,3.24,400A399.61,399.61,0,0,1,770.85,244.5,397,397,0,0,1,802.24,400c0,191.53-136.33,356.56-324.17,392.4-3.63.69-7,1.3-10.41,1.85A404,404,0,0,1,402.74,799.5Z"/><path d="M402.74,1A399.06,399.06,0,0,1,606.35,743.2,395.53,395.53,0,0,1,478,791.91c-3.62.69-7,1.29-10.39,1.84a403,403,0,0,1-129.68,0c-3.5-.57-6.94-1.18-10.21-1.8a395.61,395.61,0,0,1-128.45-48.68A399,399,0,0,1,402.74,1m0-1c-220.91,0-400,179.09-400,400,0,195.19,139.81,357.73,324.76,392.93q5.1,1,10.24,1.81a404.25,404.25,0,0,0,130,0q5.24-.86,10.42-1.85C663,757.62,802.74,595.13,802.74,400c0-220.91-179.09-400-400-400Z"/><path class="cls-2" d="M558,365l-59.52,1c-11.3.19-20.35,9.07-20.35,19.94V793.16q-5.19.95-10.42,1.78a420,420,0,0,1-130,0q-5.14-.81-10.24-1.75V389.29c0-11.15-9.51-20.14-21.1-19.94l-58.78,1c-16,.28-26.23-16.17-18.5-29.61L379.48,79.29c7.72-13.44,27.66-13.78,35.89-.62l160,256.07C583.65,347.9,574,364.7,558,365Z"/></svg>